<svg width="17" height="17" viewBox="0 0 17 17" fill="none" xmlns="http://www.w3.org/2000/svg">
<path d="M8.4992 1.536C10.752 1.536 11.0592 1.536 11.9808 1.536C12.8 1.536 13.2096 1.7408 13.5168 1.8432C13.9264 2.048 14.2336 2.1504 14.5408 2.4576C14.848 2.7648 15.0528 3.072 15.1552 3.4816C15.2576 3.7888 15.36 4.1984 15.4624 5.0176C15.4624 5.9392 15.4624 6.144 15.4624 8.4992C15.4624 10.8544 15.4624 11.0592 15.4624 11.9808C15.4624 12.8 15.2576 13.2096 15.1552 13.5168C14.9504 13.9264 14.848 14.2336 14.5408 14.5408C14.2336 14.848 13.9264 15.0528 13.5168 15.1552C13.2096 15.2576 12.8 15.36 11.9808 15.4624C11.0592 15.4624 10.8544 15.4624 8.4992 15.4624C6.144 15.4624 5.9392 15.4624 5.0176 15.4624C4.1984 15.4624 3.7888 15.2576 3.4816 15.1552C3.072 14.9504 2.7648 14.848 2.4576 14.5408C2.1504 14.2336 1.9456 13.9264 1.8432 13.5168C1.7408 13.2096 1.6384 12.8 1.536 11.9808C1.536 11.0592 1.536 10.8544 1.536 8.4992C1.536 6.144 1.536 5.9392 1.536 5.0176C1.536 4.1984 1.7408 3.7888 1.8432 3.4816C2.048 3.072 2.1504 2.7648 2.4576 2.4576C2.7648 2.1504 3.072 1.9456 3.4816 1.8432C3.7888 1.7408 4.1984 1.6384 5.0176 1.536C5.9392 1.536 6.2464 1.536 8.4992 1.536ZM8.4992 0C6.144 0 5.9392 0 5.0176 0C4.096 0 3.4816 0.204801 2.9696 0.409601C2.4576 0.614401 1.9456 0.921601 1.4336 1.4336C0.921601 1.9456 0.716801 2.3552 0.409601 2.9696C0.204801 3.4816 0.1024 4.096 0 5.0176C0 5.9392 0 6.2464 0 8.4992C0 10.8544 0 11.0592 0 11.9808C0 12.9024 0.204801 13.5168 0.409601 14.0288C0.614401 14.5408 0.921601 15.0528 1.4336 15.5648C1.9456 16.0768 2.3552 16.2816 2.9696 16.5888C3.4816 16.7936 4.096 16.896 5.0176 16.9984C5.9392 16.9984 6.2464 16.9984 8.4992 16.9984C10.752 16.9984 11.0592 16.9984 11.9808 16.9984C12.9024 16.9984 13.5168 16.7936 14.0288 16.5888C14.5408 16.384 15.0528 16.0768 15.5648 15.5648C16.0768 15.0528 16.2816 14.6432 16.5888 14.0288C16.7936 13.5168 16.896 12.9024 16.9984 11.9808C16.9984 11.0592 16.9984 10.752 16.9984 8.4992C16.9984 6.2464 16.9984 5.9392 16.9984 5.0176C16.9984 4.096 16.7936 3.4816 16.5888 2.9696C16.384 2.4576 16.0768 1.9456 15.5648 1.4336C15.0528 0.921601 14.6432 0.716801 14.0288 0.409601C13.5168 0.204801 12.9024 0.1024 11.9808 0C11.0592 0 10.8544 0 8.4992 0Z" fill="white"/>
<path d="M8.4992 4.096C6.0416 4.096 4.096 6.0416 4.096 8.4992C4.096 10.9568 6.0416 12.9024 8.4992 12.9024C10.9568 12.9024 12.9024 10.9568 12.9024 8.4992C12.9024 6.0416 10.9568 4.096 8.4992 4.096ZM8.4992 11.3664C6.9632 11.3664 5.632 10.1376 5.632 8.4992C5.632 6.9632 6.8608 5.632 8.4992 5.632C10.0352 5.632 11.3664 6.8608 11.3664 8.4992C11.3664 10.0352 10.0352 11.3664 8.4992 11.3664Z" fill="white"/>
<path d="M13.0048 5.0176C13.5703 5.0176 14.0288 4.55914 14.0288 3.9936C14.0288 3.42806 13.5703 2.9696 13.0048 2.9696C12.4393 2.9696 11.9808 3.42806 11.9808 3.9936C11.9808 4.55914 12.4393 5.0176 13.0048 5.0176Z" fill="white"/>
</svg>
