<svg width="30" height="27" viewBox="0 0 30 27" fill="none" xmlns="http://www.w3.org/2000/svg">
<path d="M18.75 17.8125C18.75 18.3398 18.2812 18.75 17.8125 18.75H12.1875C11.6602 18.75 11.25 18.3398 11.25 17.8125V15H0V23.4375C0 24.9609 1.28906 26.25 2.8125 26.25H27.1875C28.6523 26.25 30 24.9609 30 23.4375V15H18.75V17.8125ZM27.1875 5.625H22.5V2.8125C22.5 1.34766 21.1523 0 19.6875 0H10.3125C8.78906 0 7.5 1.34766 7.5 2.8125V5.625H2.8125C1.28906 5.625 0 6.97266 0 8.4375V13.125H30V8.4375C30 6.97266 28.6523 5.625 27.1875 5.625ZM18.75 5.625H11.25V3.75H18.75V5.625Z" fill="#00CBB8"/>
</svg>
