<svg width="38" height="35" viewBox="0 0 38 35" fill="none" xmlns="http://www.w3.org/2000/svg">
<g filter="url(#filter0_d_54_314)">
<mask id="path-1-outside-1_54_314" maskUnits="userSpaceOnUse" x="3" y="-1.625" width="32" height="29" fill="black">
<rect fill="white" x="3" y="-1.625" width="32" height="29"/>
<path d="M22.75 17.8125C22.75 18.3398 22.2812 18.75 21.8125 18.75H16.1875C15.6602 18.75 15.25 18.3398 15.25 17.8125V15H4V23.4375C4 24.9609 5.28906 26.25 6.8125 26.25H31.1875C32.6523 26.25 34 24.9609 34 23.4375V15H22.75V17.8125ZM31.1875 5.625H26.5V2.8125C26.5 1.34766 25.1523 0 23.6875 0H14.3125C12.7891 0 11.5 1.34766 11.5 2.8125V5.625H6.8125C5.28906 5.625 4 6.97266 4 8.4375V13.125H34V8.4375C34 6.97266 32.6523 5.625 31.1875 5.625ZM22.75 5.625H15.25V3.75H22.75V5.625Z"/>
</mask>
<path d="M22.75 17.8125C22.75 18.3398 22.2812 18.75 21.8125 18.75H16.1875C15.6602 18.75 15.25 18.3398 15.25 17.8125V15H4V23.4375C4 24.9609 5.28906 26.25 6.8125 26.25H31.1875C32.6523 26.25 34 24.9609 34 23.4375V15H22.75V17.8125ZM31.1875 5.625H26.5V2.8125C26.5 1.34766 25.1523 0 23.6875 0H14.3125C12.7891 0 11.5 1.34766 11.5 2.8125V5.625H6.8125C5.28906 5.625 4 6.97266 4 8.4375V13.125H34V8.4375C34 6.97266 32.6523 5.625 31.1875 5.625ZM22.75 5.625H15.25V3.75H22.75V5.625Z" fill="#00CBB8"/>
<path d="M15.25 15H16.25V14H15.25V15ZM4 15V14H3V15H4ZM34 15H35V14H34V15ZM22.75 15V14H21.75V15H22.75ZM26.5 5.625H25.5V6.625H26.5V5.625ZM11.5 5.625V6.625H12.5V5.625H11.5ZM4 13.125H3V14.125H4V13.125ZM34 13.125V14.125H35V13.125H34ZM22.75 5.625V6.625H23.75V5.625H22.75ZM15.25 5.625H14.25V6.625H15.25V5.625ZM15.25 3.75V2.75H14.25V3.75H15.25ZM22.75 3.75H23.75V2.75H22.75V3.75ZM21.75 17.8125C21.75 17.794 21.7545 17.7778 21.7593 17.7671C21.7635 17.7579 21.7666 17.7556 21.7651 17.757C21.7634 17.7587 21.7624 17.7587 21.7656 17.7573C21.7689 17.7559 21.7843 17.75 21.8125 17.75V19.75C22.793 19.75 23.75 18.9318 23.75 17.8125H21.75ZM21.8125 17.75H16.1875V19.75H21.8125V17.75ZM16.1875 17.75C16.1863 17.75 16.192 17.75 16.2016 17.7539C16.2106 17.7577 16.2199 17.7637 16.2281 17.7719C16.2363 17.7801 16.2423 17.7894 16.2461 17.7984C16.25 17.808 16.25 17.8137 16.25 17.8125H14.25C14.25 18.8921 15.1079 19.75 16.1875 19.75V17.75ZM16.25 17.8125V15H14.25V17.8125H16.25ZM15.25 14H4V16H15.25V14ZM3 15V23.4375H5V15H3ZM3 23.4375C3 25.5132 4.73678 27.25 6.8125 27.25V25.25C5.84135 25.25 5 24.4087 5 23.4375H3ZM6.8125 27.25H31.1875V25.25H6.8125V27.25ZM31.1875 27.25C33.1912 27.25 35 25.5265 35 23.4375H33C33 24.3953 32.1135 25.25 31.1875 25.25V27.25ZM35 23.4375V15H33V23.4375H35ZM34 14H22.75V16H34V14ZM21.75 15V17.8125H23.75V15H21.75ZM31.1875 4.625H26.5V6.625H31.1875V4.625ZM27.5 5.625V2.8125H25.5V5.625H27.5ZM27.5 2.8125C27.5 1.77401 27.0267 0.826372 26.3502 0.149827C25.6736 -0.526718 24.726 -1 23.6875 -1V1C24.1139 1 24.5725 1.20055 24.936 1.56404C25.2995 1.92753 25.5 2.38615 25.5 2.8125H27.5ZM23.6875 -1H14.3125V1H23.6875V-1ZM14.3125 -1C12.2235 -1 10.5 0.808792 10.5 2.8125H12.5C12.5 1.88652 13.3547 1 14.3125 1V-1ZM10.5 2.8125V5.625H12.5V2.8125H10.5ZM11.5 4.625H6.8125V6.625H11.5V4.625ZM6.8125 4.625C4.72345 4.625 3 6.43379 3 8.4375H5C5 7.51152 5.85467 6.625 6.8125 6.625V4.625ZM3 8.4375V13.125H5V8.4375H3ZM4 14.125H34V12.125H4V14.125ZM35 13.125V8.4375H33V13.125H35ZM35 8.4375C35 7.39901 34.5267 6.45137 33.8502 5.77483C33.1736 5.09828 32.226 4.625 31.1875 4.625V6.625C31.6139 6.625 32.0725 6.82555 32.436 7.18904C32.7995 7.55254 33 8.01115 33 8.4375H35ZM22.75 4.625H15.25V6.625H22.75V4.625ZM16.25 5.625V3.75H14.25V5.625H16.25ZM15.25 4.75H22.75V2.75H15.25V4.75ZM21.75 3.75V5.625H23.75V3.75H21.75Z" fill="black" mask="url(#path-1-outside-1_54_314)"/>
</g>
<defs>
<filter id="filter0_d_54_314" x="0" y="0" width="38" height="34.25" filterUnits="userSpaceOnUse" color-interpolation-filters="sRGB">
<feFlood flood-opacity="0" result="BackgroundImageFix"/>
<feColorMatrix in="SourceAlpha" type="matrix" values="0 0 0 0 0 0 0 0 0 0 0 0 0 0 0 0 0 0 127 0" result="hardAlpha"/>
<feOffset dy="4"/>
<feGaussianBlur stdDeviation="2"/>
<feComposite in2="hardAlpha" operator="out"/>
<feColorMatrix type="matrix" values="0 0 0 0 0 0 0 0 0 0 0 0 0 0 0 0 0 0 0.25 0"/>
<feBlend mode="normal" in2="BackgroundImageFix" result="effect1_dropShadow_54_314"/>
<feBlend mode="normal" in="SourceGraphic" in2="effect1_dropShadow_54_314" result="shape"/>
</filter>
</defs>
</svg>
