<svg width="30" height="30" viewBox="0 0 30 30" fill="none" xmlns="http://www.w3.org/2000/svg">
<path fill-rule="evenodd" clip-rule="evenodd" d="M14.9288 0C6.71805 0 0 6.75013 0 15.0001C0 23.2505 6.71805 30.0002 14.9288 30.0002C16.339 30.0002 17.417 28.9171 17.417 27.5002C17.417 26.8337 17.1683 26.2502 16.7537 25.8335C16.339 25.4168 16.0903 24.8333 16.0903 24.1668C16.0903 22.75 17.1683 21.6668 18.5785 21.6668H21.5639C26.1255 21.6668 29.8578 17.9168 29.8578 13.3335C29.8577 6.0002 23.14 0 14.9288 0ZM5.80568 15.0001C4.39553 15.0001 3.31755 13.917 3.31755 12.5001C3.31755 11.0832 4.39553 10.0001 5.80568 10.0001C7.21576 10.0001 8.29383 11.0832 8.29383 12.5001C8.29383 13.917 7.21576 15.0001 5.80568 15.0001ZM10.782 8.33342C9.37181 8.33342 8.29383 7.25021 8.29383 5.8334C8.29383 4.41652 9.37181 3.33338 10.782 3.33338C12.192 3.33338 13.2701 4.41652 13.2701 5.8334C13.2701 7.25021 12.192 8.33342 10.782 8.33342ZM19.0757 8.33342C17.6656 8.33342 16.5876 7.25021 16.5876 5.8334C16.5876 4.41652 17.6656 3.33338 19.0757 3.33338C20.4859 3.33338 21.5639 4.41652 21.5639 5.8334C21.5639 7.25021 20.4859 8.33342 19.0757 8.33342ZM24.052 15.0001C22.6419 15.0001 21.5638 13.917 21.5638 12.5001C21.5638 11.0832 22.6419 10.0001 24.052 10.0001C25.4621 10.0001 26.5401 11.0832 26.5401 12.5001C26.5401 13.917 25.4621 15.0001 24.052 15.0001Z" fill="black" fill-opacity="0.54"/>
</svg>
