<svg width="24" height="24" viewBox="0 0 24 24" fill="none" xmlns="http://www.w3.org/2000/svg">
<path d="M12 0C5.37097 0 0 5.37097 0 12C0 18.629 5.37097 24 12 24C18.629 24 24 18.629 24 12C24 5.37097 18.629 0 12 0ZM12 21.6774C6.62903 21.6774 2.32258 17.371 2.32258 12C2.32258 6.67742 6.62903 2.32258 12 2.32258C17.3226 2.32258 21.6774 6.67742 21.6774 12C21.6774 17.371 17.3226 21.6774 12 21.6774ZM14.9516 16.6452C15.2419 16.8387 15.5806 16.7903 15.7742 16.5L16.6935 15.2903C16.8871 15 16.8387 14.6613 16.5484 14.4677L13.3548 12.0968V5.22581C13.3548 4.93548 13.0645 4.64516 12.7742 4.64516H11.2258C10.8871 4.64516 10.6452 4.93548 10.6452 5.22581V13.2097C10.6452 13.3548 10.6935 13.5484 10.8387 13.6452L14.9516 16.6452Z" fill="white"/>
</svg>
