<svg width="48" height="48" viewBox="0 0 48 48" fill="none" xmlns="http://www.w3.org/2000/svg">
<g clip-path="url(#clip0_10_918)">
<path d="M12.0005 0C11.0536 0 10.2861 0.767511 10.2861 1.71432V5.14285H13.7147V1.71432C13.7147 0.767511 12.9472 0 12.0005 0Z" fill="#F5F5FC"/>
<path d="M36.0005 0C35.0536 0 34.2861 0.767511 34.2861 1.71432V5.14285H37.7147V1.71432C37.7148 0.767511 36.9473 0 36.0005 0Z" fill="#F5F5FC"/>
<path d="M42.8571 5.14282H37.7143V12C37.7143 12.9468 36.9468 13.7143 36 13.7143C35.0532 13.7143 34.2857 12.9468 34.2857 12V5.14282H13.7142V12C13.7142 12.9468 12.9467 13.7143 11.9999 13.7143C11.0531 13.7143 10.2856 12.9468 10.2856 12V5.14282H5.14285C2.30253 5.14282 0 7.44535 0 10.2857V42.8571C0 45.6974 2.30253 48 5.14285 48H42.8571C45.6975 48 48 45.6974 48 42.8571V10.2857C48 7.44535 45.6975 5.14282 42.8571 5.14282ZM44.5714 42.8571C44.5714 43.8039 43.8039 44.5714 42.857 44.5714H5.14285C4.19605 44.5714 3.42854 43.8039 3.42854 42.8571V20.5714H44.5714V42.8571Z" fill="#F5F5FC"/>
<path d="M13.7141 23.9999H10.2856C9.3388 23.9999 8.57129 24.7674 8.57129 25.7142C8.57129 26.661 9.3388 27.4285 10.2856 27.4285H13.7141C14.6609 27.4285 15.4285 26.661 15.4285 25.7142C15.4285 24.7674 14.6609 23.9999 13.7141 23.9999Z" fill="#F5F5FC"/>
<path d="M25.7141 23.9999H22.2856C21.3388 23.9999 20.5713 24.7674 20.5713 25.7142C20.5713 26.661 21.3388 27.4285 22.2856 27.4285H25.7141C26.661 27.4285 27.4285 26.661 27.4285 25.7142C27.4285 24.7674 26.661 23.9999 25.7141 23.9999Z" fill="#F5F5FC"/>
<path d="M37.7141 23.9999H34.2856C33.3388 23.9999 32.5713 24.7674 32.5713 25.7142C32.5713 26.661 33.3388 27.4285 34.2856 27.4285H37.7141C38.661 27.4285 39.4285 26.661 39.4285 25.7142C39.4285 24.7674 38.6609 23.9999 37.7141 23.9999Z" fill="#F5F5FC"/>
<path d="M13.7141 30.8571H10.2856C9.3388 30.8571 8.57129 31.6246 8.57129 32.5714C8.57129 33.5182 9.3388 34.2857 10.2856 34.2857H13.7141C14.6609 34.2857 15.4285 33.5182 15.4285 32.5714C15.4285 31.6246 14.6609 30.8571 13.7141 30.8571Z" fill="#F5F5FC"/>
<path d="M25.7141 30.8571H22.2856C21.3388 30.8571 20.5713 31.6246 20.5713 32.5714C20.5713 33.5182 21.3388 34.2857 22.2856 34.2857H25.7141C26.661 34.2857 27.4285 33.5182 27.4285 32.5714C27.4285 31.6246 26.661 30.8571 25.7141 30.8571Z" fill="#F5F5FC"/>
<path d="M37.7141 30.8571H34.2856C33.3388 30.8571 32.5713 31.6246 32.5713 32.5714C32.5713 33.5182 33.3388 34.2857 34.2856 34.2857H37.7141C38.661 34.2857 39.4285 33.5182 39.4285 32.5714C39.4284 31.6246 38.6609 30.8571 37.7141 30.8571Z" fill="#F5F5FC"/>
<path d="M13.7141 37.7142H10.2856C9.3388 37.7142 8.57129 38.4817 8.57129 39.4286C8.57129 40.3754 9.3388 41.1428 10.2856 41.1428H13.7141C14.6609 41.1428 15.4285 40.3753 15.4285 39.4284C15.4285 38.4816 14.6609 37.7142 13.7141 37.7142Z" fill="#F5F5FC"/>
<path d="M25.7141 37.7142H22.2856C21.3388 37.7142 20.5713 38.4817 20.5713 39.4285C20.5713 40.3754 21.3388 41.1429 22.2856 41.1429H25.7141C26.661 41.1429 27.4285 40.3754 27.4285 39.4285C27.4285 38.4817 26.661 37.7142 25.7141 37.7142Z" fill="#F5F5FC"/>
<path d="M37.7141 37.7142H34.2856C33.3388 37.7142 32.5713 38.4817 32.5713 39.4285C32.5713 40.3754 33.3388 41.1429 34.2856 41.1429H37.7141C38.661 41.1429 39.4285 40.3754 39.4285 39.4285C39.4285 38.4817 38.6609 37.7142 37.7141 37.7142Z" fill="#F5F5FC"/>
</g>
<defs>
<clipPath id="clip0_10_918">
<rect width="48" height="48" fill="white"/>
</clipPath>
</defs>
</svg>
