<svg width="24" height="29" viewBox="0 0 24 29" fill="none" xmlns="http://www.w3.org/2000/svg">
<path fill-rule="evenodd" clip-rule="evenodd" d="M12 2.56057C8.96729 2.56057 6.49998 5.0877 6.49998 8.19393C6.49998 11.3001 8.96729 13.8273 12 13.8273C15.0327 13.8273 17.5 11.3001 17.5 8.19393C17.5 5.0877 15.0327 2.56057 12 2.56057Z" fill="black" fill-opacity="0.54"/>
<path fill-rule="evenodd" clip-rule="evenodd" d="M11.9998 0C7.58159 0 3.99983 3.6686 3.99983 8.19398C3.99983 12.7194 7.58159 16.388 11.9998 16.388C16.4181 16.388 19.9998 12.7194 19.9998 8.19398C19.9998 3.6686 16.4181 0 11.9998 0ZM11.9998 14.3395C8.68609 14.3395 5.99984 11.5881 5.99984 8.19398C5.99984 4.79988 8.68609 2.04849 11.9998 2.04849C15.3136 2.04849 17.9998 4.79988 17.9998 8.19398C17.9998 11.5881 15.3136 14.3395 11.9998 14.3395Z" fill="black" fill-opacity="0.54"/>
<path fill-rule="evenodd" clip-rule="evenodd" d="M5.19325 14.2253L0 23.5581H6L9 28.6793L12 21.906L14.1026 17.159C13.428 17.3244 12.7241 17.4126 12 17.4126C9.28094 17.4126 6.84356 16.1775 5.19325 14.2253Z" fill="black" fill-opacity="0.54"/>
<path fill-rule="evenodd" clip-rule="evenodd" d="M18.8064 14.2253C17.864 15.3399 16.6651 16.2208 15.3037 16.7714L12.5067 23.0508L14.9996 28.6792L17.9996 23.558H23.9996L18.8064 14.2253Z" fill="black" fill-opacity="0.54"/>
</svg>
