<svg width="31" height="33" viewBox="0 0 31 33" fill="none" xmlns="http://www.w3.org/2000/svg">
<path d="M11.1583 9.14029C9.14029 9.14029 7.53777 10.6835 7.53777 12.5827C7.53777 14.482 9.14029 16.0252 11.1583 16.0252C13.1763 16.0252 14.8381 14.482 14.8381 12.5827C14.8381 10.6835 13.1763 9.14029 11.1583 9.14029ZM19.705 9.14029C17.6871 9.14029 16.0252 10.6835 16.0252 12.5827C16.0252 14.482 17.6871 16.0252 19.705 16.0252C21.723 16.0252 23.3255 14.482 23.3255 12.5827C23.3255 10.6835 21.723 9.14029 19.705 9.14029ZM28.964 14.482L28.6079 14.7194V2.96763C28.6079 1.36511 27.4209 0 25.8777 0H4.57014C3.08633 0 1.83993 1.36511 1.83993 2.96763V14.7194C1.72122 14.6601 1.60252 14.6007 1.48381 14.482C0.593525 13.8885 0 14.7194 0.534173 15.5504C1.60252 16.8561 3.67986 18.518 6.82554 19.8237C3.5018 31.2194 15.0162 33 14.7788 27.1835C14.7788 27.1241 14.8381 23.8004 14.8381 21.4263C15.1349 21.4856 15.3723 21.6043 15.6097 21.6043C15.6097 23.9784 15.6691 27.1241 15.6691 27.1835C15.491 33 26.946 31.2194 23.6223 19.8237C26.768 18.518 28.8453 16.9155 29.9137 15.5504C30.4478 14.7194 29.8543 13.8885 28.964 14.482ZM27.1835 15.6097C23.0881 17.8651 19.527 17.4496 17.6277 17.3903C16.2032 17.3309 15.7284 17.9245 15.6097 18.8741C15.0162 18.3993 14.5414 17.9245 14.4227 17.8651C14.1259 17.509 13.5917 17.3903 12.8201 17.3903C10.9209 17.4496 7.47842 17.8651 3.5018 15.7284V4.33273C3.5018 2.2554 4.03597 1.60252 5.8759 1.60252H24.75C26.5306 1.60252 27.1835 2.3741 27.1835 4.33273V15.6097Z" fill="#F48C06"/>
</svg>
