<svg width="27" height="30" viewBox="0 0 27 30" fill="none" xmlns="http://www.w3.org/2000/svg">
<path d="M26.25 4.33594C26.25 1.93359 20.332 0 13.125 0C5.85938 0 0 1.93359 0 4.33594V6.97266C0 9.375 5.85938 11.25 13.125 11.25C20.332 11.25 26.25 9.375 26.25 6.97266V4.33594ZM26.25 10.3125C23.3789 12.3047 18.2227 13.1836 13.125 13.1836C7.96875 13.1836 2.8125 12.3047 0 10.3125V16.3477C0 18.75 5.85938 20.625 13.125 20.625C20.332 20.625 26.25 18.75 26.25 16.3477V10.3125ZM26.25 19.6875C23.3789 21.6797 18.2227 22.5586 13.125 22.5586C7.96875 22.5586 2.8125 21.6797 0 19.6875V25.7227C0 28.125 5.85938 30 13.125 30C20.332 30 26.25 28.125 26.25 25.7227V19.6875Z" fill="#9DCCFF"/>
</svg>
