<svg width="121" height="121" viewBox="0 0 121 121" fill="none" xmlns="http://www.w3.org/2000/svg">
<g opacity="0.8" filter="url(#filter0_d_10_752)">
<ellipse cx="49.9745" cy="49.9157" rx="49.9745" ry="49.9157" transform="matrix(0.972537 0.237765 -0.238361 0.972391 23.7959 0)" fill="white"/>
</g>
<g filter="url(#filter1_d_10_752)">
<ellipse cx="37.8595" cy="37.8149" rx="37.8595" ry="37.8149" transform="matrix(0.972537 0.237765 -0.238361 0.972391 32.6931 14.6466)" fill="white"/>
</g>
<g clip-path="url(#clip0_10_752)">
<path d="M79.513 42.138L55.6549 36.3052C52.619 35.563 49.5446 37.4257 48.8014 40.4575L41.1638 71.6151C40.353 74.9226 42.3878 78.2721 45.6997 79.0818L69.0572 84.7922C69.7943 84.9724 70.5382 84.5217 70.7186 83.7856C70.8991 83.0495 70.4478 82.3065 69.7107 82.1263L46.3531 76.4159C44.5132 75.9661 43.3828 74.1052 43.8332 72.2678C44.2836 70.4303 46.147 69.3014 47.9869 69.7512L71.3444 75.4616C72.0816 75.6418 72.8254 75.1911 73.0058 74.455L80.5209 43.7972C80.7014 43.0611 80.2501 42.3182 79.513 42.138ZM45.2335 66.5553L51.4708 41.1102C51.8543 39.5458 53.435 38.5881 55.0014 38.9711L55.0849 38.9915C55.3152 39.0478 55.4562 39.28 55.3998 39.51L48.7391 66.6824C48.6857 66.9002 48.4728 67.0426 48.2518 67.0033C47.3974 66.8512 46.547 66.8843 45.7449 67.0756C45.4347 67.1495 45.1577 66.8646 45.2335 66.5553Z" fill="#3491E7"/>
<path d="M70.8543 77.4607L47.4968 71.7503C46.7596 71.57 46.0158 72.0208 45.8354 72.7569C45.6549 73.493 46.1062 74.2359 46.8433 74.4162L70.2008 80.1266C70.938 80.3068 71.6819 79.8561 71.8623 79.1199C72.0427 78.3838 71.5915 77.6409 70.8543 77.4607Z" fill="#3491E7"/>
</g>
<defs>
<filter id="filter0_d_10_752" x="-37.6045" y="-27.6077" width="196.21" height="196.079" filterUnits="userSpaceOnUse" color-interpolation-filters="sRGB">
<feFlood flood-opacity="0" result="BackgroundImageFix"/>
<feColorMatrix in="SourceAlpha" type="matrix" values="0 0 0 0 0 0 0 0 0 0 0 0 0 0 0 0 0 0 127 0" result="hardAlpha"/>
<feOffset dy="10"/>
<feGaussianBlur stdDeviation="24"/>
<feColorMatrix type="matrix" values="0 0 0 0 0.156863 0 0 0 0 0.168627 0 0 0 0 0.435294 0 0 0 0.1 0"/>
<feBlend mode="normal" in2="BackgroundImageFix" result="effect1_dropShadow_10_752"/>
<feBlend mode="normal" in="SourceGraphic" in2="effect1_dropShadow_10_752" result="shape"/>
</filter>
<filter id="filter1_d_10_752" x="-25.473" y="-15.4909" width="171.945" height="171.844" filterUnits="userSpaceOnUse" color-interpolation-filters="sRGB">
<feFlood flood-opacity="0" result="BackgroundImageFix"/>
<feColorMatrix in="SourceAlpha" type="matrix" values="0 0 0 0 0 0 0 0 0 0 0 0 0 0 0 0 0 0 127 0" result="hardAlpha"/>
<feOffset dy="10"/>
<feGaussianBlur stdDeviation="24"/>
<feColorMatrix type="matrix" values="0 0 0 0 0.156863 0 0 0 0 0.168627 0 0 0 0 0.435294 0 0 0 0.1 0"/>
<feBlend mode="normal" in2="BackgroundImageFix" result="effect1_dropShadow_10_752"/>
<feBlend mode="normal" in="SourceGraphic" in2="effect1_dropShadow_10_752" result="shape"/>
</filter>
<clipPath id="clip0_10_752">
<rect width="43.917" height="43.8653" fill="white" transform="matrix(0.972537 0.237765 -0.238361 0.972391 44.1421 33.4906)"/>
</clipPath>
</defs>
</svg>
