<svg width="84" height="38" viewBox="0 0 84 38" fill="none" xmlns="http://www.w3.org/2000/svg">
<path d="M1.11156 13.1517C4.03224 9.95656 11.9036 3.96345 20.0237 5.5524C30.1737 7.53859 35.8127 13.1517 48.8256 13.1517C61.8385 13.1517 72.2489 -1.09696 83.6135 1.92545" stroke="#B2C4F0" stroke-width="3"/>
<path d="M1.11156 24.7986C4.03224 21.6034 11.9036 15.6103 20.0237 17.1992C30.1737 19.1854 35.8127 24.7986 48.8256 24.7986C61.8385 24.7986 72.2489 10.5499 83.6135 13.5723" stroke="#B2C4F0" stroke-width="3"/>
<path d="M1.11156 36.4454C4.03224 33.2502 11.9036 27.2571 20.0237 28.8461C30.1737 30.8323 35.8127 36.4454 48.8256 36.4454C61.8385 36.4454 72.2489 22.1967 83.6135 25.2191" stroke="#B2C4F0" stroke-width="3"/>
</svg>
