<svg width="81" height="65" viewBox="0 0 81 65" fill="none" xmlns="http://www.w3.org/2000/svg">
<g clip-path="url(#clip0_10_701)">
<path d="M65.7056 18.8864L23.9022 21.9958C22.1411 22.1268 20.6303 23.2232 19.9594 24.8567C19.2886 26.4904 19.5929 28.3321 20.7537 29.6629L29.9213 40.1738L44.9836 32.5688C45.6767 32.2188 46.5224 32.497 46.8724 33.1901C47.2223 33.8832 46.9442 34.7289 46.251 35.0789L31.1887 42.684L34.2036 56.3013C34.5853 58.0256 35.8866 59.3639 37.5995 59.794C39.3157 60.2249 41.0935 59.6568 42.2425 58.3198L69.5639 26.5277C70.8078 25.0803 71.0461 23.1227 70.1859 21.419C69.3257 19.7153 67.6089 18.7447 65.7056 18.8864Z" fill="#41BE90"/>
</g>
<line x1="1.36857" y1="48.1817" x2="21.202" y2="38.1676" stroke="#41BE90" stroke-width="2.73088" stroke-linecap="round"/>
<line x1="10.8178" y1="49.8619" x2="23.7973" y2="43.3084" stroke="#FBA333" stroke-width="2.73088" stroke-linecap="round"/>
<line x1="19.4101" y1="51.974" x2="26.3923" y2="48.4486" stroke="#41BE90" stroke-width="2.73088" stroke-linecap="round"/>
<defs>
<clipPath id="clip0_10_701">
<rect width="47.9037" height="47.9037" fill="white" transform="translate(16.534 21.6289) scale(1.00176) rotate(-26.7895)"/>
</clipPath>
</defs>
</svg>
