<svg width="34" height="30" viewBox="0 0 34 30" fill="none" xmlns="http://www.w3.org/2000/svg">
<path d="M30.9375 0H2.8125C1.23047 0 0 1.28906 0 2.8125V21.5625C0 23.1445 1.23047 24.375 2.8125 24.375H14.0625L13.125 27.1875H8.90625C8.08594 27.1875 7.5 27.832 7.5 28.5938C7.5 29.4141 8.08594 30 8.90625 30H24.8438C25.6055 30 26.25 29.4141 26.25 28.5938C26.25 27.832 25.6055 27.1875 24.8438 27.1875H20.625L19.6875 24.375H30.9375C32.4609 24.375 33.75 23.1445 33.75 21.5625V2.8125C33.75 1.28906 32.4609 0 30.9375 0ZM30 20.625H3.75V3.75H30V20.625Z" fill="#5B72EE"/>
</svg>
