<svg width="27" height="30" viewBox="0 0 27 30" fill="none" xmlns="http://www.w3.org/2000/svg">
<path d="M26.25 21.0938V1.40625C26.25 0.644531 25.6055 0 24.8438 0H5.625C2.51953 0 0 2.51953 0 5.625V24.375C0 27.4805 2.51953 30 5.625 30H24.8438C25.6055 30 26.25 29.4141 26.25 28.5938V27.6562C26.25 27.2461 26.0156 26.8359 25.7227 26.6016C25.4297 25.6641 25.4297 23.0859 25.7227 22.207C26.0156 21.9727 26.25 21.5625 26.25 21.0938ZM7.5 7.85156C7.5 7.67578 7.61719 7.5 7.85156 7.5H20.2734C20.4492 7.5 20.625 7.67578 20.625 7.85156V9.02344C20.625 9.25781 20.4492 9.375 20.2734 9.375H7.85156C7.61719 9.375 7.5 9.25781 7.5 9.02344V7.85156ZM7.5 11.6016C7.5 11.4258 7.61719 11.25 7.85156 11.25H20.2734C20.4492 11.25 20.625 11.4258 20.625 11.6016V12.7734C20.625 13.0078 20.4492 13.125 20.2734 13.125H7.85156C7.61719 13.125 7.5 13.0078 7.5 12.7734V11.6016ZM22.3242 26.25H5.625C4.57031 26.25 3.75 25.4297 3.75 24.375C3.75 23.3789 4.57031 22.5 5.625 22.5H22.3242C22.207 23.5547 22.207 25.2539 22.3242 26.25Z" fill="#EE645B"/>
</svg>
