<svg width="31" height="31" viewBox="0 0 31 31" fill="none" xmlns="http://www.w3.org/2000/svg">
<path fill-rule="evenodd" clip-rule="evenodd" d="M15.4665 0C6.92455 0 0 6.93961 0 15.5C0 24.0604 6.92455 31 15.4665 31C24.0085 31 30.9331 24.0604 30.9331 15.5C30.9331 6.93961 24.0085 0 15.4665 0ZM13.8642 28.6899C10.9297 28.3377 8.2146 27.0212 6.09233 24.8944C3.58839 22.3851 2.20949 19.0488 2.20949 15.5C2.20949 12.3054 3.32754 9.28332 5.37723 6.88119C5.43002 7.51587 5.56037 8.1963 5.52699 8.68269C5.40504 10.4559 5.23044 11.5656 6.26611 13.0616C6.66958 13.6443 6.7687 14.4795 6.96508 15.1539C7.15714 15.8137 7.92445 16.1598 8.45366 16.5663C9.52137 17.3867 10.5428 18.3402 11.675 19.0623C12.4222 19.5388 12.889 19.7759 12.6702 20.6897C12.4941 21.4246 12.445 21.8773 12.0656 22.532C11.9498 22.7318 12.5026 24.0163 12.6866 24.2007C13.2441 24.7593 13.7973 25.2719 14.4051 25.7749C15.3473 26.555 14.3135 27.5687 13.8642 28.6899ZM24.8407 24.8944C22.9347 26.8046 20.5503 28.0605 17.9584 28.5519C18.3257 27.6416 18.9798 26.8328 19.5864 26.3639C20.1142 25.9558 20.7751 25.1709 21.0508 24.5492C21.3262 23.9283 21.6911 23.39 22.0604 22.8191C22.5857 22.0069 20.7651 20.782 20.1751 20.5253C18.8475 19.9477 17.8482 19.1683 16.6683 18.3363C15.8277 17.7436 14.121 18.6458 13.172 18.2307C11.8721 17.6619 10.8012 16.6735 9.67135 15.8208C8.50541 14.9408 8.56177 13.9149 8.56177 12.6167C9.47504 12.6505 10.7742 12.3634 11.3806 13.0995C11.5719 13.3317 12.2297 14.3694 12.6701 14.0007C13.0298 13.6994 12.4035 12.4917 12.2825 12.2078C11.9104 11.3348 13.1305 10.9944 13.755 10.4024C14.57 9.63006 16.3182 8.41882 16.18 7.86521C16.0419 7.31161 14.4308 5.74313 13.4846 5.98785C13.3428 6.02451 12.0943 7.33643 11.8531 7.54225C11.8595 7.11406 11.8659 6.68595 11.8724 6.25776C11.8765 5.9874 11.3692 5.70989 11.3927 5.53552C11.4522 5.09481 12.6763 4.295 12.9808 3.94401C12.7675 3.8104 12.0395 3.18376 11.8192 3.27572C11.2857 3.49853 10.6833 3.65204 10.1498 3.87478C10.1498 3.68938 10.1274 3.51522 10.1006 3.34323C11.1696 2.86892 12.3007 2.5391 13.4698 2.36316L14.5171 2.78494L15.2565 3.66434L15.9944 4.42689L16.6395 4.63518L17.6641 3.6668L17.3999 2.97548V2.35406C19.4261 2.64901 21.3397 3.40658 23.0156 4.57474C22.7157 4.60164 22.3863 4.64583 22.0145 4.69323C21.861 4.60231 21.664 4.56103 21.4966 4.49776C21.9823 5.54416 22.4888 6.57611 23.0034 7.60865C23.5532 8.71161 24.7726 9.89467 24.9868 11.059C25.2392 12.4313 25.0641 13.6779 25.2021 15.2925C25.3351 16.8473 26.9513 18.614 26.9513 18.614C26.9513 18.614 27.6977 18.8687 28.3184 18.78C27.7398 21.0739 26.5536 23.1777 24.8407 24.8944Z" fill="white" fill-opacity="1"/>
</svg>
