<svg xmlns="http://www.w3.org/2000/svg" version="1.1" xmlns:xlink="http://www.w3.org/1999/xlink" xmlns:svgjs="http://svgjs.dev/svgjs" width="1500" height="937" viewBox="0 0 1500 937"><g transform="matrix(1,0,0,1,0,0)"><svg viewBox="0 0 512 320" data-background-color="#49bbbd" preserveAspectRatio="xMidYMid meet" height="937" width="1500" xmlns="http://www.w3.org/2000/svg" xmlns:xlink="http://www.w3.org/1999/xlink"><g id="tight-bounds" transform="matrix(1,0,0,1,0,0)"><svg viewBox="0 0 512 320" height="320" width="512"><g><svg></svg></g><g><svg viewBox="0 0 512 320" height="320" width="512"><g><path d="M96 160c0-88.366 71.634-160 160-160 88.366 0 160 71.634 160 160 0 88.366-71.634 160-160 160-88.366 0-160-71.634-160-160zM256 307.277c81.339 0 147.277-65.938 147.277-147.277 0-81.339-65.938-147.277-147.277-147.277-81.339 0-147.277 65.938-147.277 147.277 0 81.339 65.938 147.277 147.277 147.277z" fill="#ffffff" fill-rule="nonzero" stroke="none" stroke-width="1" stroke-linecap="butt" stroke-linejoin="miter" stroke-miterlimit="10" stroke-dasharray="" stroke-dashoffset="0" font-family="none" font-weight="none" font-size="none" text-anchor="none" style="mix-blend-mode: normal" data-fill-palette-color="tertiary"></path></g><g transform="matrix(1,0,0,1,155.43602489703875,80)"><svg viewBox="0 0 201.12795020592253 160" height="160" width="201.12795020592253"><g><svg viewBox="0 0 201.12795020592253 160" height="160" width="201.12795020592253"><g><svg viewBox="0 0 255.99999999999997 203.65145648858635" height="160" width="201.12795020592253"><g transform="matrix(1,0,0,1,0,113.86613447161182)"><svg viewBox="0 0 255.99999999999997 89.78532201697453" height="89.78532201697453" width="255.99999999999997"><g id="textblocktransform"><svg viewBox="0 0 255.99999999999997 89.78532201697453" height="89.78532201697453" width="255.99999999999997" id="textblock"><g><svg viewBox="0 0 255.99999999999997 89.78532201697453" height="89.78532201697453" width="255.99999999999997"><g transform="matrix(1,0,0,1,0,0)"><svg width="255.99999999999997" viewBox="3.56 -34.3 97.8 34.3" height="89.78532201697453" data-palette-color="#ffffff"><path d="M24.71-27.37L24.71-27.37 24.15-31.23Q24.15-32.64 25.43-33.35 26.71-34.06 28.48-34.06 30.25-34.06 30.99-33.45 31.74-32.84 31.74-32.23L31.74-32.23 31.74-31.42 31.54-30.66 31.23-29.96 30.93-29.2Q30.52-27.83 30.52-20.46L30.52-20.46 30.47-16.41Q30.47-15.72 30.42-14.38L30.42-14.38 30.35-12.33Q30.27-9.25 30.27-7.92 30.27-6.59 30.46-5.85 30.64-5.1 31.09-4.03 31.54-2.95 31.54-2.47L31.54-2.47Q31.54-1.15 30.7-0.68 29.86-0.22 28.11-0.22 26.37-0.22 25.27-1.04 24.17-1.86 24.17-2.64 24.17-3.42 24.38-4.43 24.58-5.44 24.72-6.37 24.85-7.3 24.85-10.82 24.85-14.33 23.54-15.19L23.54-15.19Q22.61-15.8 19.19-15.8L19.19-15.8Q12.48-15.8 11.3-14.48L11.3-14.48Q10.38-13.43 10.38-8.33L10.38-8.33Q10.38-6.42 10.47-5.62L10.47-5.62 10.6-4.83 10.74-4.13Q10.89-3.3 10.89-2.55 10.89-1.81 9.94-1.15 8.98-0.49 7.1-0.49L7.1-0.49Q3.56-0.49 3.56-2.66L3.56-2.66Q3.56-2.71 4.47-5.69L4.47-5.69Q4.98-7.4 4.98-17.29L4.98-17.29 5-18.29Q5.03-19.68 5.05-20.48 5.08-21.29 5.08-24.13 5.08-26.98 4.9-27.91 4.71-28.83 4.19-29.98 3.66-31.13 3.66-31.79L3.66-31.79Q3.66-33.86 7.06-33.86L7.06-33.86Q8.81-33.86 9.85-33.19 10.89-32.52 10.89-31.59L10.89-31.59Q10.89-31.37 10.64-29.88 10.4-28.39 10.4-26.2L10.4-26.2Q10.4-21.63 11.68-20.69 12.96-19.75 19.8-19.75L19.8-19.75Q23.39-19.75 24.05-21.11 24.71-22.46 24.71-27.37ZM38.62-2.49L38.62-2.49Q38.62-2.81 38.96-3.75 39.3-4.69 39.49-5.64 39.67-6.59 39.67-9.28L39.67-9.28 39.74-12.99Q39.74-12.99 39.74-20.85L39.74-20.85Q39.74-26.51 39.66-27.48 39.57-28.44 39.01-29.8 38.45-31.15 38.45-32.09 38.45-33.03 39.35-33.67 40.26-34.3 41.67-34.3L41.67-34.3 42.26-34.3Q44.11-34.3 45.32-33.57 46.53-32.84 46.53-31.47L46.53-31.47Q46.53-30.93 46.19-29.97 45.85-29 45.55-27.83 45.26-26.66 45.26-16.92 45.26-7.18 45.75-5.92 46.24-4.66 47.4-4.37 48.56-4.08 51.14-4.08 53.73-4.08 54.95-4.47 56.17-4.86 57.42-5.37 58.66-5.88 59.27-5.88L59.27-5.88Q60.94-5.88 60.94-3.66L60.94-3.66 60.94-3.1Q60.94-1.25 59.57-0.51L59.57-0.51Q58.62 0 55.66 0L55.66 0 50.71 0 50.1-0.02 49.46-0.02Q42.23-0.02 40.43-0.42 38.62-0.81 38.62-2.49ZM94.18-23.63Q94.06-23.95 93.66-23.95 93.26-23.95 89.61-15.5 85.96-7.06 85.32-6.08L85.32-6.08Q84.2-4.35 82.95-4.35 81.71-4.35 80.61-6.49L80.61-6.49Q79.93-7.86 76.74-15.93 73.55-24 72.82-24L72.82-24Q72.5-24 72.31-23.36L72.31-23.36Q71.09-19.31 71.09-7.06L71.09-7.06Q71.09-3.78 70.36-2.67 69.62-1.56 67.71-1.56 65.79-1.56 65.79-3.49L65.79-3.49Q65.79-3.71 66.44-5.54 67.08-7.37 67.23-9.62L67.23-9.62Q67.82-17.99 67.82-22.41 67.82-26.83 67.57-28.59L67.57-28.59 67.4-29.69Q67.16-31.15 67.16-31.68 67.16-32.2 67.81-32.74 68.45-33.28 69.7-33.28L69.7-33.28Q72.53-33.28 74.56-30.59L74.56-30.59Q76-28.71 79.52-21.06 83.05-13.4 83.78-13.4L83.78-13.4 84.32-14.21 88.06-21.8Q91.62-29 92.7-30.54L92.7-30.54Q94.67-33.37 97.97-33.37L97.97-33.37Q98.97-33.37 99.65-32.92 100.34-32.47 100.34-31.67L100.34-31.67 100.24-30.83 100.09-29.86Q99.97-28.81 99.97-27.54L99.97-27.54 99.97-24.98 100-22.34Q100-21 100.04-18.36L100.04-18.36 100.04-13.06Q100.04-7.52 100.53-5.81L100.53-5.81 100.87-4.88Q101.36-3.56 101.36-3.15L101.36-3.15Q101.36-1.12 98.33-1.12L98.33-1.12Q96.6-1.12 95.53-2.91L95.53-2.91Q94.97-3.86 94.97-5.52L94.97-5.52 95.11-9.99Q95.11-21.22 94.18-23.63L94.18-23.63Z" opacity="1" transform="matrix(1,0,0,1,0,0)" fill="#ffffff" class="wordmark-text-0" data-fill-palette-color="primary" id="text-0"></path></svg></g></svg></g></svg></g></svg></g><g transform="matrix(1,0,0,1,48.896,0)"><svg viewBox="0 0 158.20799999999997 92.66997479113253" height="92.66997479113253" width="158.20799999999997"><g><svg xmlns="http://www.w3.org/2000/svg" xmlns:xlink="http://www.w3.org/1999/xlink" version="1.1" x="0" y="0" viewBox="2.786472848737311 16.11474969975976 64.4855271512627 37.772250300240245" enable-background="new 0 0 70 70" xml:space="preserve" height="92.66997479113253" width="158.20799999999997" class="icon-icon-0" data-fill-palette-color="accent" id="icon-0"><g fill="#2f327d" data-fill-palette-color="accent"><path d="M57.41 40.919H55.359A1 1 0 1 0 55.359 42.919H57.41A1 1 0 1 0 57.41 40.919" fill="#2f327d" data-fill-palette-color="accent"></path><path d="M66.272 41.005H64.221A1 1 0 1 0 64.221 43.005H66.272A1 1 0 1 0 66.272 41.005" fill="#2f327d" data-fill-palette-color="accent"></path><path d="M60.915 43.252A1 1 0 0 0 59.915 44.252V46.303A1 1 0 1 0 61.915 46.303V44.252A1 1 0 0 0 60.915 43.252" fill="#2f327d" data-fill-palette-color="accent"></path><path d="M60.896 40.368A1 1 0 0 0 61.896 39.368V27.787C61.896 27.37 61.637 26.997 61.247 26.85L32.691 16.178A1 1 0 0 0 31.991 16.178L3.436 26.851A1 1 0 0 0 3.41 28.714L13.077 32.635V48.07C13.077 52.067 23.068 53.887 32.351 53.887S51.625 52.067 51.625 48.07V32.87L56.769 30.849A1 1 0 0 0 57.334 29.553 1 1 0 0 0 56.038 28.988L32.346 38.292 6.541 27.825 32.341 18.181 59.897 28.481V39.368A1 1 0 0 0 60.896 40.368M32.341 40.368C32.465 40.368 32.589 40.345 32.707 40.299L49.626 33.654V48.069C49.626 49.365 43.529 51.886 32.352 51.886S15.078 49.365 15.078 48.069V33.446L31.965 40.295C32.085 40.344 32.213 40.368 32.341 40.368" fill="#2f327d" data-fill-palette-color="accent"></path></g></svg></g></svg></g><g></g></svg></g></svg></g></svg></g></svg></g><defs></defs></svg><rect width="512" height="320" fill="none" stroke="none" visibility="hidden"></rect></g></svg></g></svg>