<svg width="18" height="18" viewBox="0 0 18 18" fill="none" xmlns="http://www.w3.org/2000/svg">
<path d="M17.346 0.865202L13.6899 0.0214734C13.2926 -0.0699306 12.8848 0.137486 12.7231 0.510133L11.0356 4.44753C10.888 4.79206 10.9864 5.19634 11.2782 5.43189L13.4086 7.17559C12.143 9.87201 9.93176 12.1149 7.17909 13.4051L5.43539 11.2747C5.19633 10.9829 4.79556 10.8845 4.45104 11.0321L0.513635 12.7196C0.137472 12.8848 -0.0699446 13.2926 0.0214594 13.6899L0.865189 17.346C0.953077 17.7257 1.29057 17.9999 1.68782 17.9999C10.6911 17.9999 17.9999 10.7052 17.9999 1.68784C17.9999 1.2941 17.7292 0.953091 17.346 0.865202Z" fill="white"/>
</svg>
