<svg width="30" height="23" viewBox="0 0 30 23" fill="none" xmlns="http://www.w3.org/2000/svg">
<path d="M28.5938 0H28.125V1.17188C28.125 1.58203 27.7734 1.875 27.4219 1.875H25.0781C24.668 1.875 24.375 1.58203 24.375 1.17188V0H5.625V1.17188C5.625 1.58203 5.27344 1.875 4.92188 1.875H2.57812C2.16797 1.875 1.875 1.58203 1.875 1.17188V0H1.40625C0.585938 0 0 0.644531 0 1.40625V21.0938C0 21.9141 0.585938 22.5 1.40625 22.5H1.875V21.3281C1.875 20.9766 2.16797 20.625 2.57812 20.625H4.92188C5.27344 20.625 5.625 20.9766 5.625 21.3281V22.5H24.375V21.3281C24.375 20.9766 24.668 20.625 25.0781 20.625H27.4219C27.7734 20.625 28.125 20.9766 28.125 21.3281V22.5H28.5938C29.3555 22.5 30 21.9141 30 21.0938V1.40625C30 0.644531 29.3555 0 28.5938 0ZM5.625 18.0469C5.625 18.457 5.27344 18.75 4.92188 18.75H2.57812C2.16797 18.75 1.875 18.457 1.875 18.0469V15.7031C1.875 15.3516 2.16797 15 2.57812 15H4.92188C5.27344 15 5.625 15.3516 5.625 15.7031V18.0469ZM5.625 12.4219C5.625 12.832 5.27344 13.125 4.92188 13.125H2.57812C2.16797 13.125 1.875 12.832 1.875 12.4219V10.0781C1.875 9.72656 2.16797 9.375 2.57812 9.375H4.92188C5.27344 9.375 5.625 9.72656 5.625 10.0781V12.4219ZM5.625 6.79688C5.625 7.20703 5.27344 7.5 4.92188 7.5H2.57812C2.16797 7.5 1.875 7.20703 1.875 6.79688V4.45312C1.875 4.10156 2.16797 3.75 2.57812 3.75H4.92188C5.27344 3.75 5.625 4.10156 5.625 4.45312V6.79688ZM21.5625 18.9844C21.5625 19.3945 21.2109 19.6875 20.8594 19.6875H9.14062C8.73047 19.6875 8.4375 19.3945 8.4375 18.9844V13.3594C8.4375 13.0078 8.73047 12.6562 9.14062 12.6562H20.8594C21.2109 12.6562 21.5625 13.0078 21.5625 13.3594V18.9844ZM21.5625 9.14062C21.5625 9.55078 21.2109 9.84375 20.8594 9.84375H9.14062C8.73047 9.84375 8.4375 9.55078 8.4375 9.14062V3.51562C8.4375 3.16406 8.73047 2.8125 9.14062 2.8125H20.8594C21.2109 2.8125 21.5625 3.16406 21.5625 3.51562V9.14062ZM28.125 18.0469C28.125 18.457 27.7734 18.75 27.4219 18.75H25.0781C24.668 18.75 24.375 18.457 24.375 18.0469V15.7031C24.375 15.3516 24.668 15 25.0781 15H27.4219C27.7734 15 28.125 15.3516 28.125 15.7031V18.0469ZM28.125 12.4219C28.125 12.832 27.7734 13.125 27.4219 13.125H25.0781C24.668 13.125 24.375 12.832 24.375 12.4219V10.0781C24.375 9.72656 24.668 9.375 25.0781 9.375H27.4219C27.7734 9.375 28.125 9.72656 28.125 10.0781V12.4219ZM28.125 6.79688C28.125 7.20703 27.7734 7.5 27.4219 7.5H25.0781C24.668 7.5 24.375 7.20703 24.375 6.79688V4.45312C24.375 4.10156 24.668 3.75 25.0781 3.75H27.4219C27.7734 3.75 28.125 4.10156 28.125 4.45312V6.79688Z" fill="#252641"/>
</svg>
